<mxfile host="app.diagrams.net" modified="2022-03-21T13:50:39.992Z" agent="5.0 (Macintosh; Intel Mac OS X 10_15_7) AppleWebKit/605.1.15 (KHTML, like Gecko) Version/15.4 Safari/605.1.15" etag="xkH_C4V9oK4CMtj9CL3V" version="17.1.3" type="github">
  <diagram name="Page-1" id="edf60f1a-56cd-e834-aa8a-f176f3a09ee4">
    <mxGraphModel dx="946" dy="553" grid="1" gridSize="10" guides="1" tooltips="1" connect="1" arrows="1" fold="1" page="1" pageScale="1" pageWidth="1100" pageHeight="850" background="none" math="0" shadow="0">
      <root>
        <mxCell id="0" />
        <mxCell id="1" parent="0" />
        <mxCell id="rDOJvT7Qm0CWv2PzxgvL-2" value="CORSO" style="rounded=0;whiteSpace=wrap;html=1;fillColor=#f8cecc;strokeColor=#b85450;" parent="1" vertex="1">
          <mxGeometry x="380" y="40" width="120" height="60" as="geometry" />
        </mxCell>
        <mxCell id="rDOJvT7Qm0CWv2PzxgvL-5" value="" style="endArrow=classic;html=1;rounded=0;edgeStyle=orthogonalEdgeStyle;" parent="1" edge="1">
          <mxGeometry width="50" height="50" relative="1" as="geometry">
            <mxPoint x="380" y="80" as="sourcePoint" />
            <mxPoint x="330" y="130" as="targetPoint" />
          </mxGeometry>
        </mxCell>
        <mxCell id="rDOJvT7Qm0CWv2PzxgvL-11" value="" style="edgeStyle=orthogonalEdgeStyle;rounded=0;orthogonalLoop=1;jettySize=auto;html=1;" parent="1" source="rDOJvT7Qm0CWv2PzxgvL-7" target="rDOJvT7Qm0CWv2PzxgvL-10" edge="1">
          <mxGeometry relative="1" as="geometry" />
        </mxCell>
        <mxCell id="rDOJvT7Qm0CWv2PzxgvL-7" value="Modulo 1" style="rounded=0;whiteSpace=wrap;html=1;fillColor=#dae8fc;strokeColor=#6c8ebf;" parent="1" vertex="1">
          <mxGeometry x="270" y="130" width="120" height="60" as="geometry" />
        </mxCell>
        <mxCell id="rDOJvT7Qm0CWv2PzxgvL-8" value="" style="endArrow=classic;html=1;rounded=0;edgeStyle=orthogonalEdgeStyle;" parent="1" edge="1">
          <mxGeometry width="50" height="50" relative="1" as="geometry">
            <mxPoint x="270" y="160" as="sourcePoint" />
            <mxPoint x="230.03999999999996" y="220" as="targetPoint" />
          </mxGeometry>
        </mxCell>
        <mxCell id="rDOJvT7Qm0CWv2PzxgvL-21" value="" style="edgeStyle=orthogonalEdgeStyle;rounded=0;orthogonalLoop=1;jettySize=auto;html=1;" parent="1" source="rDOJvT7Qm0CWv2PzxgvL-10" target="rDOJvT7Qm0CWv2PzxgvL-20" edge="1">
          <mxGeometry relative="1" as="geometry" />
        </mxCell>
        <mxCell id="rDOJvT7Qm0CWv2PzxgvL-26" value="" style="edgeStyle=orthogonalEdgeStyle;rounded=0;orthogonalLoop=1;jettySize=auto;html=1;" parent="1" source="rDOJvT7Qm0CWv2PzxgvL-10" target="rDOJvT7Qm0CWv2PzxgvL-25" edge="1">
          <mxGeometry relative="1" as="geometry" />
        </mxCell>
        <mxCell id="rDOJvT7Qm0CWv2PzxgvL-10" value="Modulo 2" style="whiteSpace=wrap;html=1;fillColor=#dae8fc;strokeColor=#6c8ebf;rounded=0;" parent="1" vertex="1">
          <mxGeometry x="470" y="130" width="120" height="60" as="geometry" />
        </mxCell>
        <mxCell id="rDOJvT7Qm0CWv2PzxgvL-30" value="" style="edgeStyle=orthogonalEdgeStyle;rounded=0;orthogonalLoop=1;jettySize=auto;html=1;" parent="1" source="rDOJvT7Qm0CWv2PzxgvL-20" target="rDOJvT7Qm0CWv2PzxgvL-29" edge="1">
          <mxGeometry relative="1" as="geometry" />
        </mxCell>
        <mxCell id="rDOJvT7Qm0CWv2PzxgvL-20" value="Quiz" style="whiteSpace=wrap;html=1;aspect=fixed;fillColor=#d5e8d4;strokeColor=#82b366;" parent="1" vertex="1">
          <mxGeometry x="650" y="130" width="60" height="60" as="geometry" />
        </mxCell>
        <mxCell id="rDOJvT7Qm0CWv2PzxgvL-24" value="" style="edgeStyle=orthogonalEdgeStyle;rounded=0;orthogonalLoop=1;jettySize=auto;html=1;" parent="1" source="rDOJvT7Qm0CWv2PzxgvL-22" target="rDOJvT7Qm0CWv2PzxgvL-23" edge="1">
          <mxGeometry relative="1" as="geometry" />
        </mxCell>
        <mxCell id="rDOJvT7Qm0CWv2PzxgvL-22" value="Contenuto" style="whiteSpace=wrap;html=1;aspect=fixed;fillColor=#d5e8d4;strokeColor=#82b366;" parent="1" vertex="1">
          <mxGeometry x="200" y="220" width="60" height="60" as="geometry" />
        </mxCell>
        <mxCell id="rDOJvT7Qm0CWv2PzxgvL-23" value="Contenuto" style="whiteSpace=wrap;html=1;aspect=fixed;fillColor=#d5e8d4;strokeColor=#82b366;" parent="1" vertex="1">
          <mxGeometry x="310" y="220" width="60" height="60" as="geometry" />
        </mxCell>
        <mxCell id="rDOJvT7Qm0CWv2PzxgvL-28" value="" style="edgeStyle=orthogonalEdgeStyle;rounded=0;orthogonalLoop=1;jettySize=auto;html=1;" parent="1" source="rDOJvT7Qm0CWv2PzxgvL-25" target="rDOJvT7Qm0CWv2PzxgvL-27" edge="1">
          <mxGeometry relative="1" as="geometry" />
        </mxCell>
        <mxCell id="rDOJvT7Qm0CWv2PzxgvL-25" value="Contenuto" style="whiteSpace=wrap;html=1;aspect=fixed;fillColor=#d5e8d4;strokeColor=#82b366;" parent="1" vertex="1">
          <mxGeometry x="500" y="220" width="60" height="60" as="geometry" />
        </mxCell>
        <mxCell id="rDOJvT7Qm0CWv2PzxgvL-27" value="Contenuto" style="whiteSpace=wrap;html=1;aspect=fixed;fillColor=#d5e8d4;strokeColor=#82b366;" parent="1" vertex="1">
          <mxGeometry x="590" y="220" width="60" height="60" as="geometry" />
        </mxCell>
        <mxCell id="rDOJvT7Qm0CWv2PzxgvL-29" value="Attestato" style="whiteSpace=wrap;html=1;aspect=fixed;fillColor=#d5e8d4;strokeColor=#82b366;" parent="1" vertex="1">
          <mxGeometry x="750" y="130" width="60" height="60" as="geometry" />
        </mxCell>
        <mxCell id="rDOJvT7Qm0CWv2PzxgvL-34" value="CORSO" style="rounded=0;whiteSpace=wrap;html=1;fillColor=#f8cecc;strokeColor=#b85450;" parent="1" vertex="1">
          <mxGeometry x="390" y="320" width="120" height="60" as="geometry" />
        </mxCell>
        <mxCell id="rDOJvT7Qm0CWv2PzxgvL-35" value="" style="endArrow=classic;html=1;rounded=0;edgeStyle=orthogonalEdgeStyle;" parent="1" edge="1">
          <mxGeometry width="50" height="50" relative="1" as="geometry">
            <mxPoint x="390" y="350" as="sourcePoint" />
            <mxPoint x="350.03999999999996" y="410" as="targetPoint" />
          </mxGeometry>
        </mxCell>
        <mxCell id="rDOJvT7Qm0CWv2PzxgvL-58" value="" style="edgeStyle=orthogonalEdgeStyle;rounded=0;orthogonalLoop=1;jettySize=auto;html=1;" parent="1" source="rDOJvT7Qm0CWv2PzxgvL-39" target="rDOJvT7Qm0CWv2PzxgvL-57" edge="1">
          <mxGeometry relative="1" as="geometry" />
        </mxCell>
        <mxCell id="rDOJvT7Qm0CWv2PzxgvL-39" value="Modulo 1" style="rounded=0;whiteSpace=wrap;html=1;fillColor=#dae8fc;strokeColor=#6c8ebf;" parent="1" vertex="1">
          <mxGeometry x="290" y="410" width="120" height="60" as="geometry" />
        </mxCell>
        <mxCell id="rDOJvT7Qm0CWv2PzxgvL-49" value="" style="edgeStyle=orthogonalEdgeStyle;rounded=0;orthogonalLoop=1;jettySize=auto;html=1;" parent="1" source="rDOJvT7Qm0CWv2PzxgvL-44" target="rDOJvT7Qm0CWv2PzxgvL-48" edge="1">
          <mxGeometry relative="1" as="geometry" />
        </mxCell>
        <mxCell id="rDOJvT7Qm0CWv2PzxgvL-44" value="Contenuto" style="whiteSpace=wrap;html=1;aspect=fixed;fillColor=#d5e8d4;strokeColor=#82b366;" parent="1" vertex="1">
          <mxGeometry x="640" y="410" width="60" height="60" as="geometry" />
        </mxCell>
        <mxCell id="rDOJvT7Qm0CWv2PzxgvL-47" value="" style="edgeStyle=orthogonalEdgeStyle;rounded=0;orthogonalLoop=1;jettySize=auto;html=1;" parent="1" source="rDOJvT7Qm0CWv2PzxgvL-42" target="rDOJvT7Qm0CWv2PzxgvL-44" edge="1">
          <mxGeometry relative="1" as="geometry" />
        </mxCell>
        <mxCell id="rDOJvT7Qm0CWv2PzxgvL-51" value="" style="edgeStyle=orthogonalEdgeStyle;rounded=0;orthogonalLoop=1;jettySize=auto;html=1;" parent="1" source="rDOJvT7Qm0CWv2PzxgvL-42" edge="1">
          <mxGeometry relative="1" as="geometry">
            <mxPoint x="530" y="560" as="targetPoint" />
          </mxGeometry>
        </mxCell>
        <mxCell id="rDOJvT7Qm0CWv2PzxgvL-42" value="Unita" style="whiteSpace=wrap;html=1;fillColor=#fff2cc;strokeColor=#d6b656;rounded=0;" parent="1" vertex="1">
          <mxGeometry x="470" y="410" width="120" height="60" as="geometry" />
        </mxCell>
        <mxCell id="rDOJvT7Qm0CWv2PzxgvL-46" value="" style="edgeStyle=orthogonalEdgeStyle;rounded=0;orthogonalLoop=1;jettySize=auto;html=1;endArrow=none;" parent="1" source="rDOJvT7Qm0CWv2PzxgvL-39" target="rDOJvT7Qm0CWv2PzxgvL-42" edge="1">
          <mxGeometry relative="1" as="geometry">
            <mxPoint x="350.03999999999996" y="510" as="sourcePoint" />
            <mxPoint x="360" y="660" as="targetPoint" />
          </mxGeometry>
        </mxCell>
        <mxCell id="rDOJvT7Qm0CWv2PzxgvL-48" value="Contenuto" style="whiteSpace=wrap;html=1;aspect=fixed;fillColor=#d5e8d4;strokeColor=#82b366;" parent="1" vertex="1">
          <mxGeometry x="740" y="410" width="60" height="60" as="geometry" />
        </mxCell>
        <mxCell id="rDOJvT7Qm0CWv2PzxgvL-53" value="" style="edgeStyle=orthogonalEdgeStyle;rounded=0;orthogonalLoop=1;jettySize=auto;html=1;" parent="1" source="rDOJvT7Qm0CWv2PzxgvL-50" target="rDOJvT7Qm0CWv2PzxgvL-52" edge="1">
          <mxGeometry relative="1" as="geometry" />
        </mxCell>
        <mxCell id="rDOJvT7Qm0CWv2PzxgvL-50" value="Unita" style="whiteSpace=wrap;html=1;fillColor=#fff2cc;strokeColor=#d6b656;rounded=0;" parent="1" vertex="1">
          <mxGeometry x="470" y="520" width="120" height="60" as="geometry" />
        </mxCell>
        <mxCell id="rDOJvT7Qm0CWv2PzxgvL-55" value="" style="edgeStyle=orthogonalEdgeStyle;rounded=0;orthogonalLoop=1;jettySize=auto;html=1;" parent="1" source="rDOJvT7Qm0CWv2PzxgvL-52" target="rDOJvT7Qm0CWv2PzxgvL-54" edge="1">
          <mxGeometry relative="1" as="geometry" />
        </mxCell>
        <mxCell id="rDOJvT7Qm0CWv2PzxgvL-52" value="Contenuto" style="whiteSpace=wrap;html=1;aspect=fixed;fillColor=#d5e8d4;strokeColor=#82b366;" parent="1" vertex="1">
          <mxGeometry x="640" y="520" width="60" height="60" as="geometry" />
        </mxCell>
        <mxCell id="rDOJvT7Qm0CWv2PzxgvL-54" value="Contenuto" style="whiteSpace=wrap;html=1;aspect=fixed;fillColor=#d5e8d4;strokeColor=#82b366;" parent="1" vertex="1">
          <mxGeometry x="740" y="520" width="60" height="60" as="geometry" />
        </mxCell>
        <mxCell id="rDOJvT7Qm0CWv2PzxgvL-65" value="" style="edgeStyle=orthogonalEdgeStyle;rounded=0;orthogonalLoop=1;jettySize=auto;html=1;" parent="1" source="rDOJvT7Qm0CWv2PzxgvL-57" target="rDOJvT7Qm0CWv2PzxgvL-64" edge="1">
          <mxGeometry relative="1" as="geometry" />
        </mxCell>
        <mxCell id="rDOJvT7Qm0CWv2PzxgvL-57" value="Modulo" style="whiteSpace=wrap;html=1;fillColor=#dae8fc;strokeColor=#6c8ebf;rounded=0;" parent="1" vertex="1">
          <mxGeometry x="290" y="520" width="120" height="60" as="geometry" />
        </mxCell>
        <mxCell id="rDOJvT7Qm0CWv2PzxgvL-61" value="" style="edgeStyle=orthogonalEdgeStyle;rounded=0;orthogonalLoop=1;jettySize=auto;html=1;" parent="1" source="rDOJvT7Qm0CWv2PzxgvL-59" target="rDOJvT7Qm0CWv2PzxgvL-60" edge="1">
          <mxGeometry relative="1" as="geometry" />
        </mxCell>
        <mxCell id="rDOJvT7Qm0CWv2PzxgvL-59" value="CORSO" style="rounded=0;whiteSpace=wrap;html=1;fillColor=#f8cecc;strokeColor=#b85450;" parent="1" vertex="1">
          <mxGeometry x="390" y="760" width="120" height="60" as="geometry" />
        </mxCell>
        <mxCell id="rDOJvT7Qm0CWv2PzxgvL-63" value="" style="edgeStyle=orthogonalEdgeStyle;rounded=0;orthogonalLoop=1;jettySize=auto;html=1;" parent="1" source="rDOJvT7Qm0CWv2PzxgvL-60" target="rDOJvT7Qm0CWv2PzxgvL-62" edge="1">
          <mxGeometry relative="1" as="geometry" />
        </mxCell>
        <mxCell id="rDOJvT7Qm0CWv2PzxgvL-60" value="Contenuto" style="whiteSpace=wrap;html=1;aspect=fixed;fillColor=#d5e8d4;strokeColor=#82b366;" parent="1" vertex="1">
          <mxGeometry x="550" y="760" width="60" height="60" as="geometry" />
        </mxCell>
        <mxCell id="rDOJvT7Qm0CWv2PzxgvL-62" value="Contenuto" style="whiteSpace=wrap;html=1;aspect=fixed;fillColor=#d5e8d4;strokeColor=#82b366;" parent="1" vertex="1">
          <mxGeometry x="650" y="760" width="60" height="60" as="geometry" />
        </mxCell>
        <mxCell id="rDOJvT7Qm0CWv2PzxgvL-67" value="" style="edgeStyle=orthogonalEdgeStyle;rounded=0;orthogonalLoop=1;jettySize=auto;html=1;" parent="1" source="rDOJvT7Qm0CWv2PzxgvL-64" target="rDOJvT7Qm0CWv2PzxgvL-66" edge="1">
          <mxGeometry relative="1" as="geometry" />
        </mxCell>
        <mxCell id="rDOJvT7Qm0CWv2PzxgvL-64" value="Contenuto" style="whiteSpace=wrap;html=1;aspect=fixed;fillColor=#d5e8d4;strokeColor=#82b366;" parent="1" vertex="1">
          <mxGeometry x="320" y="620" width="60" height="60" as="geometry" />
        </mxCell>
        <mxCell id="rDOJvT7Qm0CWv2PzxgvL-66" value="Contenuto" style="whiteSpace=wrap;html=1;aspect=fixed;fillColor=#d5e8d4;strokeColor=#82b366;" parent="1" vertex="1">
          <mxGeometry x="420" y="620" width="60" height="60" as="geometry" />
        </mxCell>
      </root>
    </mxGraphModel>
  </diagram>
</mxfile>
